<mxfile host="app.diagrams.net" agent="Mozilla/5.0 (Windows NT 10.0; Win64; x64) AppleWebKit/537.36 (KHTML, like Gecko) Chrome/133.0.0.0 Safari/537.36" version="26.0.14" pages="2">
  <diagram name="Page-1" id="41YeyGQv5ldWT73yQkM1">
    <mxGraphModel dx="880" dy="1637" grid="1" gridSize="10" guides="1" tooltips="1" connect="1" arrows="1" fold="1" page="1" pageScale="1" pageWidth="827" pageHeight="1169" math="0" shadow="0">
      <root>
        <mxCell id="0" />
        <mxCell id="1" parent="0" />
        <mxCell id="NInrbnOYEOCYG3vVA0xY-1" value="Customers" style="swimlane;whiteSpace=wrap;html=1;" vertex="1" parent="1">
          <mxGeometry x="310" y="-290" width="150" height="130" as="geometry" />
        </mxCell>
        <mxCell id="NInrbnOYEOCYG3vVA0xY-2" value="Customer_Id(pk)" style="text;html=1;align=center;verticalAlign=middle;resizable=0;points=[];autosize=1;strokeColor=none;fillColor=none;" vertex="1" parent="NInrbnOYEOCYG3vVA0xY-1">
          <mxGeometry y="30" width="110" height="30" as="geometry" />
        </mxCell>
        <mxCell id="NInrbnOYEOCYG3vVA0xY-3" value="Name" style="text;html=1;align=center;verticalAlign=middle;resizable=0;points=[];autosize=1;strokeColor=none;fillColor=none;" vertex="1" parent="NInrbnOYEOCYG3vVA0xY-1">
          <mxGeometry y="60" width="60" height="30" as="geometry" />
        </mxCell>
        <mxCell id="NInrbnOYEOCYG3vVA0xY-4" value="Locaion" style="text;html=1;align=center;verticalAlign=middle;resizable=0;points=[];autosize=1;strokeColor=none;fillColor=none;" vertex="1" parent="NInrbnOYEOCYG3vVA0xY-1">
          <mxGeometry y="90" width="70" height="30" as="geometry" />
        </mxCell>
        <mxCell id="NInrbnOYEOCYG3vVA0xY-6" value="" style="endArrow=classic;html=1;rounded=0;" edge="1" parent="1">
          <mxGeometry width="50" height="50" relative="1" as="geometry">
            <mxPoint x="460" y="-220" as="sourcePoint" />
            <mxPoint x="500" y="-220" as="targetPoint" />
          </mxGeometry>
        </mxCell>
        <mxCell id="NInrbnOYEOCYG3vVA0xY-8" value="Product" style="swimlane;whiteSpace=wrap;html=1;" vertex="1" parent="1">
          <mxGeometry x="500" y="-290" width="150" height="130" as="geometry" />
        </mxCell>
        <mxCell id="NInrbnOYEOCYG3vVA0xY-9" value="Category" style="text;html=1;align=center;verticalAlign=middle;resizable=0;points=[];autosize=1;strokeColor=none;fillColor=none;" vertex="1" parent="NInrbnOYEOCYG3vVA0xY-8">
          <mxGeometry y="30" width="70" height="30" as="geometry" />
        </mxCell>
        <mxCell id="NInrbnOYEOCYG3vVA0xY-10" value="Price" style="text;html=1;align=center;verticalAlign=middle;resizable=0;points=[];autosize=1;strokeColor=none;fillColor=none;" vertex="1" parent="NInrbnOYEOCYG3vVA0xY-8">
          <mxGeometry y="60" width="50" height="30" as="geometry" />
        </mxCell>
        <mxCell id="NInrbnOYEOCYG3vVA0xY-12" value="Sales" style="swimlane;whiteSpace=wrap;html=1;" vertex="1" parent="1">
          <mxGeometry x="700" y="-290" width="150" height="130" as="geometry" />
        </mxCell>
        <mxCell id="NInrbnOYEOCYG3vVA0xY-13" value="Customer_id" style="text;html=1;align=center;verticalAlign=middle;resizable=0;points=[];autosize=1;strokeColor=none;fillColor=none;" vertex="1" parent="NInrbnOYEOCYG3vVA0xY-12">
          <mxGeometry y="30" width="90" height="30" as="geometry" />
        </mxCell>
        <mxCell id="NInrbnOYEOCYG3vVA0xY-14" value="Product_id" style="text;html=1;align=center;verticalAlign=middle;resizable=0;points=[];autosize=1;strokeColor=none;fillColor=none;" vertex="1" parent="NInrbnOYEOCYG3vVA0xY-12">
          <mxGeometry x="5" y="60" width="80" height="30" as="geometry" />
        </mxCell>
        <mxCell id="NInrbnOYEOCYG3vVA0xY-20" value="" style="endArrow=classic;html=1;rounded=0;entryX=0.46;entryY=-0.04;entryDx=0;entryDy=0;entryPerimeter=0;" edge="1" parent="NInrbnOYEOCYG3vVA0xY-12" target="NInrbnOYEOCYG3vVA0xY-16">
          <mxGeometry width="50" height="50" relative="1" as="geometry">
            <mxPoint x="70" y="130" as="sourcePoint" />
            <mxPoint x="120" y="80" as="targetPoint" />
          </mxGeometry>
        </mxCell>
        <mxCell id="NInrbnOYEOCYG3vVA0xY-15" value="" style="endArrow=classic;html=1;rounded=0;entryX=-0.04;entryY=0.333;entryDx=0;entryDy=0;entryPerimeter=0;" edge="1" parent="1" target="NInrbnOYEOCYG3vVA0xY-14">
          <mxGeometry width="50" height="50" relative="1" as="geometry">
            <mxPoint x="650" y="-220" as="sourcePoint" />
            <mxPoint x="700" y="-270" as="targetPoint" />
          </mxGeometry>
        </mxCell>
        <mxCell id="NInrbnOYEOCYG3vVA0xY-16" value="Quantity" style="swimlane;whiteSpace=wrap;html=1;" vertex="1" parent="1">
          <mxGeometry x="700" y="-110" width="150" height="100" as="geometry" />
        </mxCell>
        <mxCell id="NInrbnOYEOCYG3vVA0xY-17" value="Total_amount" style="text;html=1;align=center;verticalAlign=middle;resizable=0;points=[];autosize=1;strokeColor=none;fillColor=none;" vertex="1" parent="NInrbnOYEOCYG3vVA0xY-16">
          <mxGeometry y="30" width="100" height="30" as="geometry" />
        </mxCell>
        <mxCell id="NInrbnOYEOCYG3vVA0xY-18" value="Payment_Method" style="text;html=1;align=center;verticalAlign=middle;resizable=0;points=[];autosize=1;strokeColor=none;fillColor=none;" vertex="1" parent="NInrbnOYEOCYG3vVA0xY-16">
          <mxGeometry y="60" width="120" height="30" as="geometry" />
        </mxCell>
        <mxCell id="NInrbnOYEOCYG3vVA0xY-21" value="Amazon Sales Data" style="rounded=1;whiteSpace=wrap;html=1;" vertex="1" parent="1">
          <mxGeometry x="440" y="-390" width="300" height="30" as="geometry" />
        </mxCell>
      </root>
    </mxGraphModel>
  </diagram>
  <diagram id="_fE5jqxze3_m7cWAoYnt" name="Page-2">
    <mxGraphModel dx="880" dy="468" grid="1" gridSize="10" guides="1" tooltips="1" connect="1" arrows="1" fold="1" page="1" pageScale="1" pageWidth="827" pageHeight="1169" math="0" shadow="0">
      <root>
        <mxCell id="0" />
        <mxCell id="1" parent="0" />
        <mxCell id="ipW1sKldqppmclp-38RX-4" value="" style="edgeStyle=orthogonalEdgeStyle;rounded=0;orthogonalLoop=1;jettySize=auto;html=1;" edge="1" parent="1" source="ipW1sKldqppmclp-38RX-1" target="ipW1sKldqppmclp-38RX-3">
          <mxGeometry relative="1" as="geometry" />
        </mxCell>
        <mxCell id="ipW1sKldqppmclp-38RX-1" value="Data Sources&amp;nbsp;" style="rounded=0;whiteSpace=wrap;html=1;" vertex="1" parent="1">
          <mxGeometry x="240" y="140" width="120" height="60" as="geometry" />
        </mxCell>
        <mxCell id="ipW1sKldqppmclp-38RX-2" value="&lt;span style=&quot;text-wrap-mode: wrap;&quot;&gt;(Amazon Sales Data - CSV,&amp;nbsp;&lt;/span&gt;&lt;span style=&quot;text-wrap-mode: wrap;&quot; class=&quot;hljs-keyword&quot;&gt;SQL&lt;/span&gt;&lt;span style=&quot;text-wrap-mode: wrap;&quot;&gt;&amp;nbsp;&lt;/span&gt;&lt;span style=&quot;text-wrap-mode: wrap;&quot; class=&quot;hljs-keyword&quot;&gt;Database&lt;/span&gt;&lt;span style=&quot;text-wrap-mode: wrap;&quot;&gt;)&amp;nbsp;&lt;/span&gt;" style="text;html=1;align=center;verticalAlign=middle;resizable=0;points=[];autosize=1;strokeColor=none;fillColor=none;" vertex="1" parent="1">
          <mxGeometry x="310" y="155" width="260" height="30" as="geometry" />
        </mxCell>
        <mxCell id="ipW1sKldqppmclp-38RX-7" value="" style="edgeStyle=orthogonalEdgeStyle;rounded=0;orthogonalLoop=1;jettySize=auto;html=1;" edge="1" parent="1" source="ipW1sKldqppmclp-38RX-3" target="ipW1sKldqppmclp-38RX-6">
          <mxGeometry relative="1" as="geometry" />
        </mxCell>
        <mxCell id="ipW1sKldqppmclp-38RX-3" value="&lt;span class=&quot;hljs-keyword&quot;&gt;SQL&lt;/span&gt; &lt;span class=&quot;hljs-keyword&quot;&gt;Server&lt;/span&gt;" style="whiteSpace=wrap;html=1;rounded=0;" vertex="1" parent="1">
          <mxGeometry x="240" y="280" width="120" height="60" as="geometry" />
        </mxCell>
        <mxCell id="ipW1sKldqppmclp-38RX-5" value="(Data &lt;span class=&quot;hljs-keyword&quot;&gt;Storage&lt;/span&gt; &amp;amp; Querying)" style="text;whiteSpace=wrap;html=1;" vertex="1" parent="1">
          <mxGeometry x="390" y="290" width="180" height="40" as="geometry" />
        </mxCell>
        <mxCell id="ipW1sKldqppmclp-38RX-10" value="" style="edgeStyle=orthogonalEdgeStyle;rounded=0;orthogonalLoop=1;jettySize=auto;html=1;" edge="1" parent="1" source="ipW1sKldqppmclp-38RX-6" target="ipW1sKldqppmclp-38RX-9">
          <mxGeometry relative="1" as="geometry" />
        </mxCell>
        <mxCell id="ipW1sKldqppmclp-38RX-6" value="&#xa;Python&#xa;&#xa;" style="whiteSpace=wrap;html=1;rounded=0;" vertex="1" parent="1">
          <mxGeometry x="240" y="420" width="120" height="60" as="geometry" />
        </mxCell>
        <mxCell id="ipW1sKldqppmclp-38RX-8" value="(Data Cleaning, Transformation)" style="text;whiteSpace=wrap;html=1;" vertex="1" parent="1">
          <mxGeometry x="380" y="430" width="200" height="40" as="geometry" />
        </mxCell>
        <mxCell id="ipW1sKldqppmclp-38RX-9" value="&#xa;Power BI&#xa;&#xa;" style="whiteSpace=wrap;html=1;rounded=0;" vertex="1" parent="1">
          <mxGeometry x="240" y="560" width="120" height="60" as="geometry" />
        </mxCell>
        <mxCell id="ipW1sKldqppmclp-38RX-11" value="(Data Visualization &amp;amp; Reporting)" style="text;whiteSpace=wrap;html=1;" vertex="1" parent="1">
          <mxGeometry x="390" y="580" width="200" height="40" as="geometry" />
        </mxCell>
      </root>
    </mxGraphModel>
  </diagram>
</mxfile>
